# Blender v2.82 (sub 7) OBJ File: ''
# www.blender.org
mtllib Baling.mtl
o Cube.001
v -4.134635 1.013648 5.350209
v -4.192251 1.013648 5.427516
v -4.134635 1.207536 5.350209
v -0.693374 1.013653 1.033877
v -0.213068 1.013653 0.389438
v -0.693374 1.207539 1.033877
v -0.861005 1.013653 0.957896
v -1.070503 1.013653 1.238985
v -0.861005 1.207539 0.957896
v -0.666720 1.207539 1.422006
v -0.666720 1.013653 1.422006
v -1.070503 1.207539 1.238985
v -0.380699 1.013653 0.313457
v -0.380699 1.207539 0.313457
v -0.213068 1.207539 0.389438
v -3.730852 1.207537 5.533228
v -3.730852 1.013648 5.533228
v -3.878587 1.208216 5.569688
v -4.192251 1.207536 5.427516
v -3.878587 1.012968 5.569688
v -4.009751 1.013655 -5.445834
v -4.068699 1.013655 -5.522528
v -4.009751 1.207541 -5.445834
v -0.826695 1.013653 -1.010644
v -0.335279 1.013653 -0.371319
v -0.826695 1.207539 -1.010644
v -0.660395 1.013653 -1.088381
v -0.874739 1.013653 -1.367239
v -0.660395 1.207539 -1.088381
v -1.275318 1.207539 -1.179986
v -1.275318 1.013653 -1.179986
v -0.874739 1.207539 -1.367239
v -0.168977 1.013653 -0.449057
v -0.168977 1.207539 -0.449057
v -0.335279 1.207539 -0.371319
v -4.410328 1.207544 -5.258581
v -4.410328 1.013655 -5.258581
v -4.379877 1.208221 -5.377065
v -4.068699 1.207541 -5.522528
v -4.379877 1.012975 -5.377065
v 7.881884 1.013653 0.002081
v 7.996542 1.013653 0.002122
v 7.881884 1.207539 0.002081
v 1.367407 1.013653 -0.151460
v 0.411590 1.013653 -0.151802
v 1.367407 1.207539 -0.151459
v 1.367319 1.013653 -0.000256
v 1.784221 1.013653 -0.000107
v 1.367319 1.207539 -0.000256
v 1.784438 1.207539 -0.364319
v 1.784438 1.013653 -0.364319
v 1.784221 1.207539 -0.000107
v 0.411502 1.013653 -0.000599
v 0.411502 1.207539 -0.000599
v 0.411590 1.207539 -0.151802
v 7.882100 1.207539 -0.362131
v 7.882100 1.013653 -0.362131
v 7.996708 1.208219 -0.280803
v 7.996542 1.207539 0.002122
v 7.996708 1.012970 -0.280803
v -0.438711 0.781196 0.002635
v -0.438711 0.781196 0.414379
v -0.438711 1.156543 0.417819
v 0.421994 0.781196 0.414380
v -0.438711 1.156543 0.002635
v -0.230792 1.378291 0.002635
v 0.421994 1.156543 0.417821
v -0.230792 1.378291 0.223969
v -0.027739 0.175371 0.332379
v -0.245442 0.175371 0.002635
v 0.189961 0.175371 0.002635
v 0.421994 0.781196 0.002635
v 0.188233 1.378291 0.223969
v 0.188233 1.378291 0.002635
v 0.421994 1.156543 0.002635
v 0.189963 0.175371 -0.327109
v -0.245442 0.175371 -0.327109
v 0.421994 0.781196 -0.409110
v -0.438711 1.156543 -0.412549
v -0.438711 0.781196 -0.409109
v -0.230792 1.378291 -0.218699
v 0.421994 1.156543 -0.412551
v 0.188233 1.378291 -0.218699
vn -0.5670 -0.7071 -0.4226
vn -0.7978 -0.5668 0.2056
vn -0.5670 0.7071 -0.4226
vn 0.5830 -0.7942 0.1714
vn 0.7977 -0.5669 -0.2057
vn 0.5830 0.7942 0.1714
vn 0.7398 0.6367 0.2175
vn 0.7398 -0.6367 0.2175
vn -0.2017 -0.5895 -0.7822
vn -0.2017 0.5895 -0.7822
vn 0.7977 0.5669 -0.2057
vn 0.4262 0.6383 0.6410
vn 0.4262 -0.6383 0.6410
vn -0.0695 0.6441 0.7618
vn -0.7978 0.5668 0.2056
vn -0.0695 -0.6441 0.7618
vn 0.5606 -0.7071 -0.4309
vn 0.1914 -0.5896 -0.7847
vn 0.5606 0.7071 -0.4309
vn -0.3771 -0.7742 0.5083
vn -0.1913 -0.5897 0.7847
vn -0.3771 0.7742 0.5083
vn -0.4525 0.6504 0.6101
vn -0.4525 -0.6504 0.6101
vn 0.8005 -0.5667 0.1951
vn 0.8005 0.5667 0.1951
vn -0.1913 0.5897 0.7847
vn -0.7683 0.6202 0.1581
vn -0.7683 -0.6202 0.1581
vn -0.6007 0.6260 -0.4973
vn 0.1914 0.5896 -0.7847
vn -0.6007 -0.6261 -0.4973
vn -0.0003 -0.7071 0.7071
vn 0.5770 -0.5773 0.5778
vn -0.0003 0.7071 0.7071
vn -0.1508 -0.7638 -0.6276
vn -0.5771 -0.5774 -0.5776
vn -0.1508 0.7638 -0.6276
vn -0.1759 0.6580 -0.7321
vn -0.1759 -0.6580 -0.7321
vn -0.5776 -0.5773 0.5771
vn -0.5776 0.5773 0.5771
vn -0.5771 0.5774 -0.5776
vn 0.2317 0.6445 -0.7286
vn 0.2317 -0.6445 -0.7286
vn 0.6969 0.6201 -0.3603
vn 0.5770 0.5773 0.5778
vn 0.6968 -0.6201 -0.3603
vn -0.9881 -0.1538 0.0000
vn -0.7096 -0.1800 0.6813
vn -0.6566 0.3725 0.6558
vn 0.7105 -0.1970 0.6755
vn -0.9299 0.3678 0.0000
vn -0.3975 0.9176 0.0000
vn 0.6563 0.3830 0.6501
vn -0.3111 0.8919 0.3282
vn -0.0103 -0.7555 0.6550
vn -0.5970 -0.7934 0.1186
vn 0.5746 -0.8101 0.1163
vn 0.9833 -0.1819 0.0000
vn 0.2855 0.8992 0.3315
vn 0.3705 0.9288 0.0000
vn 0.9188 0.3948 0.0000
vn 0.4551 -0.7000 -0.5504
vn -0.4763 -0.6882 -0.5473
vn 0.7163 -0.1695 -0.6768
vn -0.6566 0.3725 -0.6558
vn -0.7146 -0.1506 -0.6831
vn -0.3111 0.8919 -0.3282
vn 0.6563 0.3830 -0.6501
vn 0.2855 0.8992 -0.3315
usemtl Material.001
s 1
f 1//1 2//2 3//3
f 4//4 5//5 6//6
f 7//1 8//1 9//3
f 6//6 10//7 4//4
f 4//4 11//8 7//1
f 9//3 12//3 10//7
f 13//9 7//1 14//10
f 5//5 13//9 15//11
f 15//11 14//10 6//6
f 8//1 1//1 12//3
f 4//4 7//1 5//5
f 10//7 16//12 11//8
f 12//3 3//3 10//7
f 11//8 17//13 8//1
f 18//14 19//15 20//16
f 16//12 18//14 20//16
f 3//3 19//15 16//12
f 17//13 20//16 2//2
f 21//17 22//18 23//19
f 24//20 25//21 26//22
f 27//17 28//17 29//19
f 26//22 30//23 24//20
f 24//20 31//24 27//17
f 29//19 32//19 30//23
f 33//25 27//17 34//26
f 25//21 33//25 35//27
f 35//27 34//26 26//22
f 28//17 21//17 32//19
f 24//20 27//17 33//25
f 30//23 36//28 31//24
f 32//19 23//19 30//23
f 31//24 37//29 28//17
f 38//30 39//31 40//32
f 36//28 38//30 40//32
f 23//19 39//31 36//28
f 37//29 40//32 22//18
f 41//33 42//34 43//35
f 44//36 45//37 46//38
f 47//33 48//33 49//35
f 46//38 50//39 44//36
f 44//36 51//40 47//33
f 49//35 52//35 50//39
f 53//41 47//33 54//42
f 45//37 53//41 55//43
f 55//43 54//42 46//38
f 48//33 41//33 52//35
f 44//36 47//33 45//37
f 50//39 56//44 51//40
f 52//35 43//35 50//39
f 51//40 57//45 48//33
f 58//46 59//47 60//48
f 56//44 58//46 60//48
f 43//35 59//47 56//44
f 57//45 60//48 42//34
f 61//49 62//50 63//51
f 62//50 64//52 63//51
f 65//53 63//51 66//54
f 63//51 67//55 68//56
f 69//57 62//50 70//58
f 64//52 69//57 71//59
f 64//52 72//60 67//55
f 73//61 74//62 68//56
f 67//55 75//63 74//62
f 76//64 77//65 78//66
f 61//49 65//53 79//67
f 80//68 79//67 78//66
f 65//53 66//54 79//67
f 79//67 81//69 82//70
f 76//64 71//59 77//65
f 77//65 70//58 80//68
f 78//66 72//60 71//59
f 78//66 82//70 72//60
f 83//71 81//69 74//62
f 82//70 83//71 74//62
f 2//2 19//15 3//3
f 5//5 15//11 6//6
f 8//1 12//3 9//3
f 10//7 11//8 4//4
f 11//8 8//1 7//1
f 6//6 9//3 10//7
f 7//1 9//3 14//10
f 13//9 14//10 15//11
f 14//10 9//3 6//6
f 1//1 3//3 12//3
f 7//1 13//9 5//5
f 16//12 17//13 11//8
f 3//3 16//12 10//7
f 17//13 1//1 8//1
f 19//15 2//2 20//16
f 17//13 16//12 20//16
f 19//15 18//14 16//12
f 1//1 17//13 2//2
f 22//18 39//31 23//19
f 25//21 35//27 26//22
f 28//17 32//19 29//19
f 30//23 31//24 24//20
f 31//24 28//17 27//17
f 26//22 29//19 30//23
f 27//17 29//19 34//26
f 33//25 34//26 35//27
f 34//26 29//19 26//22
f 21//17 23//19 32//19
f 25//21 24//20 33//25
f 36//28 37//29 31//24
f 23//19 36//28 30//23
f 37//29 21//17 28//17
f 39//31 22//18 40//32
f 37//29 36//28 40//32
f 39//31 38//30 36//28
f 21//17 37//29 22//18
f 42//34 59//47 43//35
f 45//37 55//43 46//38
f 48//33 52//35 49//35
f 50//39 51//40 44//36
f 51//40 48//33 47//33
f 46//38 49//35 50//39
f 47//33 49//35 54//42
f 53//41 54//42 55//43
f 54//42 49//35 46//38
f 41//33 43//35 52//35
f 47//33 53//41 45//37
f 56//44 57//45 51//40
f 43//35 56//44 50//39
f 57//45 41//33 48//33
f 59//47 42//34 60//48
f 57//45 56//44 60//48
f 59//47 58//46 56//44
f 41//33 57//45 42//34
f 64//52 62//50 69//57
f 65//53 61//49 63//51
f 64//52 67//55 63//51
f 63//51 68//56 66//54
f 67//55 73//61 68//56
f 69//57 70//58 71//59
f 62//50 61//49 70//58
f 72//60 64//52 71//59
f 72//60 75//63 67//55
f 74//62 66//54 68//56
f 73//61 67//55 74//62
f 77//65 80//68 78//66
f 80//68 61//49 79//67
f 79//67 82//70 78//66
f 66//54 81//69 79//67
f 81//69 83//71 82//70
f 71//59 70//58 77//65
f 70//58 61//49 80//68
f 76//64 78//66 71//59
f 82//70 75//63 72//60
f 81//69 66//54 74//62
f 75//63 82//70 74//62
