# Blender v2.68 (sub 0) OBJ File: ''
# www.blender.org
mtllib kipas.mtl
o Cube.004_Cube.010
v -0.420980 -0.506971 0.534184
v -0.420980 -0.506971 -0.486281
v 0.599485 -0.506971 -0.486281
v 0.599485 -0.506971 0.534184
v -0.420980 0.204909 0.534184
v -0.420980 0.204909 -0.486281
v 0.599485 0.204909 -0.486281
v 0.599485 0.204909 0.534184
vn -1.000000 0.000000 0.000000
vn 0.000000 0.000000 -1.000000
vn 1.000000 -0.000000 0.000000
vn 0.000000 -0.000000 1.000000
vn -0.000000 -1.000000 0.000000
vn -0.000000 1.000000 0.000000
usemtl None
s off
f 5//1 6//1 1//1
f 6//2 7//2 2//2
f 7//3 8//3 3//3
f 8//4 5//4 4//4
f 1//5 2//5 4//5
f 8//6 7//6 5//6
f 6//1 2//1 1//1
f 7//2 3//2 2//2
f 8//3 4//3 3//3
f 5//4 1//4 4//4
f 2//5 3//5 4//5
f 7//6 6//6 5//6
o Cube_Cube.006
v -0.444056 -0.091437 0.531468
v -0.444056 -0.091437 -0.561948
v 5.036421 -0.091437 -0.561948
v 5.036421 -0.091437 0.531468
v -0.444056 0.116719 0.531468
v -0.444056 0.116719 -0.561948
v 5.036421 0.116719 -0.561948
v 5.036421 0.116719 0.531468
usemtl None
s off
f 13//1 14//1 9//1
f 14//2 15//2 10//2
f 15//3 16//3 11//3
f 16//4 13//4 12//4
f 9//5 10//5 12//5
f 16//6 15//6 13//6
f 14//1 10//1 9//1
f 15//2 11//2 10//2
f 16//3 12//3 11//3
f 13//4 9//4 12//4
f 10//5 11//5 12//5
f 15//6 14//6 13//6
o Cube.001_Cube.007
v -4.705938 -0.091437 0.543369
v -4.705938 -0.091437 -0.550047
v 0.620115 -0.091437 -0.550047
v 0.620115 -0.091437 0.543369
v -4.705938 0.116719 0.543369
v -4.705938 0.116719 -0.550047
v 0.620115 0.116719 -0.550047
v 0.620115 0.116719 0.543369
usemtl None
s off
f 21//1 22//1 17//1
f 22//2 23//2 18//2
f 23//3 24//3 19//3
f 24//4 21//4 20//4
f 17//5 18//5 20//5
f 24//6 23//6 21//6
f 22//1 18//1 17//1
f 23//2 19//2 18//2
f 24//3 20//3 19//3
f 21//4 17//4 20//4
f 18//5 19//5 20//5
f 23//6 22//6 21//6
o Cube.002_Cube.011
v -0.481665 -0.096737 -0.253351
v 0.611414 -0.089809 -0.227097
v 0.517578 -0.083453 4.797771
v -0.575501 -0.090380 4.771517
v -0.482975 0.111415 -0.253721
v 0.610104 0.118342 -0.227467
v 0.516268 0.124699 4.797400
v -0.576811 0.117771 4.771146
vn 0.024022 -0.001626 -0.999710
vn 0.999806 0.006327 0.018663
vn -0.024022 0.001628 0.999710
vn -0.999806 -0.006327 -0.018663
vn 0.006304 -0.999979 0.001383
vn -0.006304 0.999979 -0.001383
vn 0.024022 -0.001627 -0.999710
usemtl None
s off
f 29//7 30//7 25//7
f 30//8 31//8 27//8
f 31//9 32//9 27//9
f 32//10 29//10 28//10
f 25//11 26//11 27//11
f 32//12 31//12 29//12
f 30//13 26//13 25//13
f 26//8 30//8 27//8
f 32//9 28//9 27//9
f 29//10 25//10 28//10
f 28//11 25//11 27//11
f 31//12 30//12 29//12
o Cube.003_Cube.012
v -0.315308 -0.096737 -4.967529
v 0.777771 -0.089809 -4.941276
v 0.683934 -0.083453 0.518543
v -0.409144 -0.090380 0.492289
v -0.316618 0.111415 -4.967900
v 0.776460 0.118342 -4.941646
v 0.682624 0.124699 0.518173
v -0.410455 0.117771 0.491919
vn 0.024022 -0.001628 -0.999710
vn 0.999833 0.006324 0.017176
vn -0.024022 0.001627 0.999710
vn -0.999832 -0.006324 -0.017176
vn 0.006307 -0.999979 0.001273
vn -0.006307 0.999979 -0.001273
vn 0.024021 -0.001626 -0.999710
usemtl None
s off
f 37//14 38//14 33//14
f 38//15 39//15 35//15
f 39//16 40//16 35//16
f 40//17 37//17 36//17
f 33//18 34//18 35//18
f 40//19 39//19 37//19
f 38//20 34//20 33//20
f 34//15 38//15 35//15
f 40//16 36//16 35//16
f 37//17 33//17 36//17
f 36//18 33//18 35//18
f 39//19 38//19 37//19
