# Blender v2.68 (sub 0) OBJ File: ''
# www.blender.org
mtllib pintuu.mtl
o Cube
v 0.102169 -1.000000 -1.000000
v 0.102169 -1.000000 1.000000
v -0.321221 -1.000000 1.000000
v -0.321220 -1.000000 -1.000000
v 0.102169 2.375664 -0.999999
v 0.102168 2.375664 1.000001
v -0.321221 2.375664 1.000000
v -0.321221 2.375664 -1.000000
v 0.102169 0.125221 -1.000000
v 0.102169 1.250443 -1.000000
v 0.102169 0.125221 1.000000
v 0.102168 1.250443 1.000000
v -0.321221 0.125221 1.000000
v -0.321221 1.250443 1.000000
v -0.321220 0.125221 -1.000000
v -0.321220 1.250443 -1.000000
v 0.102169 -1.000000 -0.333333
v 0.102169 -1.000000 0.333333
v -0.321221 -1.000000 0.333333
v -0.321220 -1.000000 -0.333334
v 0.102169 2.375664 -0.333333
v 0.102169 2.375664 0.333334
v -0.321221 2.375664 0.333333
v -0.321221 2.375664 -0.333333
v 0.102169 0.125221 -0.333333
v 0.102169 0.125221 0.333334
v 0.102169 1.250443 -0.333333
v 0.102169 1.250443 0.333334
v -0.321221 0.125221 0.333333
v -0.321221 0.125221 -0.333334
v -0.321221 1.250443 0.333333
v -0.321221 1.250443 -0.333334
v 0.102169 1.813054 -1.000000
v 0.102168 1.813054 1.000000
v -0.321221 1.813054 1.000000
v -0.321221 1.813054 -1.000000
v 0.102169 1.813054 -0.333333
v 0.102169 1.813054 0.333334
v -0.321221 1.813054 0.333333
v -0.321221 1.813054 -0.333333
v 0.102169 0.687832 -1.000000
v 0.102169 0.687832 1.000000
v -0.321221 0.687832 1.000000
v -0.321220 0.687832 -1.000000
v 0.102169 0.687832 -0.333333
v 0.102169 0.687832 0.333334
v -0.321221 0.687832 0.333333
v -0.321221 0.687832 -0.333334
v 0.102169 -1.000000 0.666667
v 0.102168 2.375664 0.666667
v 0.102169 0.125221 0.666667
v 0.102169 1.250443 0.666667
v -0.321221 -1.000000 0.666666
v -0.321221 2.375664 0.666666
v -0.321221 0.125221 0.666666
v -0.321221 1.250443 0.666666
v 0.102168 1.813054 0.666667
v -0.321221 1.813054 0.666666
v 0.102169 0.687832 0.666667
v -0.321221 0.687832 0.666666
v 0.102169 0.950716 -1.000000
v 0.102169 0.950716 1.000000
v -0.321221 0.950716 1.000000
v -0.321220 0.950716 -1.000000
v 0.102169 0.950716 -0.333333
v 0.102169 0.950716 0.333334
v -0.321221 0.950716 0.333333
v -0.321221 0.950716 -0.333334
v 0.102169 0.950716 0.666667
v -0.321221 0.950716 0.666666
v 0.102169 1.100580 -1.000000
v 0.102168 1.100580 1.000000
v -0.321221 1.100580 1.000000
v -0.321220 1.100580 -1.000000
v 0.102169 1.100580 -0.333333
v 0.102169 1.100580 0.333334
v -0.321221 1.100580 0.333333
v -0.321221 1.100580 -0.333334
v 0.102169 1.100580 0.666667
v -0.321221 1.100580 0.666666
vn 0.000000 -1.000000 0.000000
vn -0.000000 1.000000 0.000000
vn 1.000000 0.000000 0.000000
vn -0.000002 -0.000000 1.000000
vn -1.000000 -0.000000 -0.000000
vn 0.000001 0.000000 -1.000000
vn -0.000000 -0.000000 1.000000
vn 0.000002 0.000000 -1.000000
vn -0.000001 -0.000000 1.000000
vn 1.000000 0.000000 0.000001
vn 0.000001 0.000001 -1.000000
usemtl Material
s off
f 49//1 2//1 53//1
f 50//2 54//2 6//2
f 57//3 50//3 34//3
f 34//4 6//4 35//4
f 40//5 24//5 36//5
f 9//6 1//6 15//6
f 49//3 51//3 2//3
f 79//3 52//3 72//3
f 2//7 11//7 3//7
f 72//4 12//4 73//4
f 20//5 30//5 4//5
f 78//5 32//5 74//5
f 33//6 10//6 36//6
f 41//6 9//6 44//6
f 1//1 17//1 4//1
f 17//1 18//1 20//1
f 5//2 8//2 21//2
f 21//2 24//2 22//2
f 33//3 5//3 37//3
f 37//3 21//3 38//3
f 58//5 54//5 39//5
f 39//5 23//5 40//5
f 1//3 9//3 17//3
f 17//3 25//3 18//3
f 71//3 10//3 75//3
f 75//3 27//3 76//3
f 53//5 55//5 19//5
f 19//5 29//5 20//5
f 80//5 56//5 77//5
f 77//5 31//5 78//5
f 52//3 57//3 12//3
f 12//4 34//4 14//4
f 32//5 40//5 16//5
f 5//6 33//6 8//6
f 10//3 33//3 27//3
f 31//2 28//2 32//2
f 56//5 58//5 31//5
f 39//8 38//8 31//8
f 37//9 40//9 27//9
f 40//1 37//1 38//1
f 51//3 59//3 11//3
f 11//9 42//9 13//9
f 30//5 48//5 15//5
f 61//6 41//6 64//6
f 9//3 41//3 25//3
f 29//2 26//2 30//2
f 55//5 60//5 29//5
f 47//6 46//6 29//6
f 45//9 48//9 25//9
f 48//1 45//1 46//1
f 18//1 49//1 19//1
f 22//2 23//2 50//2
f 38//10 22//10 57//10
f 18//3 26//3 49//3
f 76//3 28//3 79//3
f 35//5 7//5 58//5
f 3//5 13//5 53//5
f 73//5 14//5 80//5
f 28//3 38//3 52//3
f 14//5 35//5 56//5
f 26//3 46//3 51//3
f 13//5 43//5 55//5
f 59//3 69//3 42//3
f 42//9 62//9 43//9
f 48//5 68//5 44//5
f 41//3 61//3 45//3
f 45//3 65//3 46//3
f 60//5 70//5 47//5
f 47//5 67//5 48//5
f 71//6 61//6 74//6
f 46//3 66//3 59//3
f 43//5 63//5 60//5
f 69//3 79//3 62//3
f 62//4 72//4 63//4
f 68//5 78//5 64//5
f 61//3 71//3 65//3
f 65//3 75//3 66//3
f 70//5 80//5 67//5
f 67//5 77//5 68//5
f 66//3 76//3 69//3
f 63//5 73//5 70//5
f 10//6 71//6 16//6
f 2//1 3//1 53//1
f 54//2 7//2 6//2
f 50//10 6//10 34//10
f 6//4 7//4 35//4
f 24//5 8//5 36//5
f 1//6 4//6 15//6
f 51//3 11//3 2//3
f 52//3 12//3 72//3
f 11//9 13//9 3//9
f 12//4 14//4 73//4
f 30//5 15//5 4//5
f 32//5 16//5 74//5
f 10//6 16//6 36//6
f 9//6 15//6 44//6
f 17//1 20//1 4//1
f 18//1 19//1 20//1
f 8//2 24//2 21//2
f 24//2 23//2 22//2
f 5//10 21//10 37//10
f 21//10 22//10 38//10
f 54//5 23//5 39//5
f 23//5 24//5 40//5
f 9//3 25//3 17//3
f 25//3 26//3 18//3
f 10//3 27//3 75//3
f 27//3 28//3 76//3
f 55//5 29//5 19//5
f 29//5 30//5 20//5
f 56//5 31//5 77//5
f 31//5 32//5 78//5
f 57//3 34//3 12//3
f 34//4 35//4 14//4
f 40//5 36//5 16//5
f 33//6 36//6 8//6
f 33//3 37//3 27//3
f 28//2 27//2 32//2
f 58//5 39//5 31//5
f 38//8 28//8 31//8
f 40//9 32//9 27//9
f 39//1 40//1 38//1
f 59//3 42//3 11//3
f 42//9 43//9 13//9
f 48//5 44//5 15//5
f 41//6 44//6 64//6
f 41//3 45//3 25//3
f 26//2 25//2 30//2
f 60//5 47//5 29//5
f 46//6 26//6 29//6
f 48//9 30//9 25//9
f 47//1 48//1 46//1
f 49//1 53//1 19//1
f 23//2 54//2 50//2
f 22//10 50//10 57//10
f 26//3 51//3 49//3
f 28//3 52//3 79//3
f 7//5 54//5 58//5
f 13//5 55//5 53//5
f 14//5 56//5 80//5
f 38//10 57//10 52//10
f 35//5 58//5 56//5
f 46//3 59//3 51//3
f 43//5 60//5 55//5
f 69//3 62//3 42//3
f 62//4 63//4 43//4
f 68//5 64//5 44//5
f 61//3 65//3 45//3
f 65//3 66//3 46//3
f 70//5 67//5 47//5
f 67//5 68//5 48//5
f 61//6 64//6 74//6
f 66//3 69//3 59//3
f 63//5 70//5 60//5
f 79//3 72//3 62//3
f 72//4 73//4 63//4
f 78//5 74//5 64//5
f 71//3 75//3 65//3
f 75//3 76//3 66//3
f 80//5 77//5 67//5
f 77//5 78//5 68//5
f 76//3 79//3 69//3
f 73//5 80//5 70//5
f 71//11 74//11 16//11
