# Blender v2.68 (sub 0) OBJ File: ''
# www.blender.org
mtllib oke.mtl
o Cube
v 0.982808 0.176580 -0.982808
v 0.982808 0.176580 0.982808
v 0.982808 0.463486 -0.982808
v 0.982808 0.463486 0.982808
v -0.982808 1.586695 0.982808
v -0.982808 1.867498 0.982808
v -0.982808 1.586695 -0.982808
v -0.982808 1.867498 -0.982808
v 0.655205 0.176580 -0.982808
v 0.655205 0.176580 0.982808
v 0.655205 0.463486 0.982808
v 0.327602 0.463486 0.982808
v 0.655205 0.744289 0.982808
v 0.327602 0.744289 0.982808
v -0.000000 0.744289 0.982808
v 0.327602 1.025091 0.982808
v -0.000000 1.025091 0.982808
v -0.327603 1.025091 0.982808
v -0.000000 1.305893 0.982808
v -0.327603 1.305893 0.982808
v -0.655205 1.305893 0.982808
v -0.327603 1.586695 0.982808
v -0.655206 1.586695 0.982808
v -0.655206 1.867498 0.982808
v -0.655205 1.867498 -0.982808
v -0.327602 1.586695 -0.982808
v -0.655205 1.586695 -0.982808
v 0.000000 1.305893 -0.982808
v -0.327602 1.305893 -0.982808
v -0.655205 1.305893 -0.982808
v 0.327603 1.025091 -0.982808
v 0.000000 1.025091 -0.982808
v -0.327602 1.025091 -0.982808
v 0.655205 0.744289 -0.982808
v 0.327603 0.744289 -0.982808
v 0.000000 0.744289 -0.982808
v 0.655205 0.463486 -0.982808
v 0.327603 0.463486 -0.982808
vn 1.000000 -0.000000 0.000000
vn -0.000001 0.000000 1.000000
vn -1.000000 -0.000000 -0.000000
vn 0.000000 0.000000 -1.000000
vn 0.000000 -1.000000 0.000000
vn 0.000000 -0.000000 1.000000
vn -0.000000 1.000000 -0.000000
vn 0.000000 0.000001 -1.000000
vn -0.652418 -0.757859 0.000000
vn -0.000014 -0.000016 1.000000
usemtl Material
s off
f 1//1 3//1 2//1
f 23//2 24//2 5//2
f 5//3 6//3 7//3
f 25//4 27//4 8//4
f 1//5 2//5 9//5
f 3//4 1//4 37//4
f 2//6 4//6 10//6
f 11//6 13//6 12//6
f 14//6 16//6 15//6
f 17//6 19//6 18//6
f 20//6 22//6 21//6
f 24//7 25//7 6//7
f 27//7 23//7 26//7
f 29//7 20//7 28//7
f 32//7 17//7 31//7
f 3//7 37//7 4//7
f 26//8 29//8 27//8
f 35//7 14//7 34//7
f 34//1 13//1 37//1
f 31//1 16//1 35//1
f 28//4 32//4 29//4
f 28//1 19//1 32//1
f 26//1 22//1 29//1
f 31//4 35//4 32//4
f 25//1 24//1 27//1
f 34//4 37//4 35//4
f 10//9 5//9 9//9
f 14//2 10//2 11//2
f 5//6 15//6 17//6
f 21//6 18//6 20//6
f 21//2 23//2 5//2
f 9//4 38//4 37//4
f 38//4 36//4 35//4
f 36//4 33//4 32//4
f 33//4 30//4 29//4
f 27//8 30//8 7//8
f 3//1 4//1 2//1
f 24//6 6//6 5//6
f 6//3 8//3 7//3
f 27//4 7//4 8//4
f 2//5 10//5 9//5
f 1//4 9//4 37//4
f 4//6 11//6 10//6
f 13//6 14//6 12//6
f 16//6 17//6 15//6
f 19//6 20//6 18//6
f 22//6 23//6 21//6
f 25//7 8//7 6//7
f 23//7 22//7 26//7
f 20//7 19//7 28//7
f 17//7 16//7 31//7
f 37//7 11//7 4//7
f 29//8 30//8 27//8
f 14//7 13//7 34//7
f 13//1 11//1 37//1
f 16//1 14//1 35//1
f 32//4 33//4 29//4
f 19//1 17//1 32//1
f 22//1 20//1 29//1
f 35//4 36//4 32//4
f 24//1 23//1 27//1
f 37//4 38//4 35//4
f 5//9 7//9 9//9
f 15//10 5//10 10//10
f 14//6 15//6 10//6
f 15//6 10//6 17//6
